<svg width="87" height="49" viewBox="0 0 87 49" fill="none" xmlns="http://www.w3.org/2000/svg">
<path d="M22.7103 20.864L21.1743 14.592L26.9023 13.28L29.2063 19.456L22.7103 20.864ZM5.01425 42.4L1.52625 39.936C5.36625 35.84 8.12892 31.264 9.81425 26.208C7.29692 26.2293 4.54492 26.24 1.55825 26.24L1.91025 22.688C3.29692 22.8587 4.71558 22.9973 6.16625 23.104C7.61692 23.2107 9.09958 23.2747 10.6143 23.296C11.3396 20.3093 11.7023 17.184 11.7023 13.92L18.6463 14.432C18.6463 15.968 18.5503 17.472 18.3583 18.944C18.1876 20.3947 17.9423 21.8133 17.6223 23.2C21.5049 23.008 25.3343 22.592 29.1103 21.952L29.6223 25.312C26.8063 25.6107 23.4143 25.8347 19.4463 25.984C21.1103 27.9467 22.9556 29.92 24.9823 31.904C27.0089 33.888 29.1103 35.7867 31.2863 37.6L25.3983 42.4C24.1396 41.0773 22.8916 39.6693 21.6543 38.176C20.4383 36.6613 19.2863 35.1573 18.1983 33.664C17.1316 32.1493 16.2143 30.7307 15.4463 29.408C14.2516 32.0533 12.7583 34.4747 10.9663 36.672C9.19558 38.8693 7.21158 40.7787 5.01425 42.4ZM57.8143 25.984C57.9423 25.984 58.0596 25.9947 58.1663 26.016C58.2943 26.0373 58.4223 26.0587 58.5503 26.08C58.7849 26.1227 59.0196 26.208 59.2543 26.336C59.4889 26.4427 59.6703 26.6133 59.7983 26.848C59.9263 27.104 59.9903 27.392 59.9903 27.712C59.9903 27.8613 59.9903 28.0107 59.9903 28.16C59.9903 28.3093 59.9689 28.4587 59.9263 28.608C59.8836 28.7787 59.8303 28.96 59.7663 29.152C59.7023 29.344 59.6063 29.4933 59.4783 29.6C59.2009 29.8133 58.9023 29.952 58.5823 30.016C58.1556 30.08 57.7289 30.112 57.3023 30.112C56.8756 30.0907 56.4383 30.0693 55.9903 30.048C55.9903 30.5387 55.9796 31.0827 55.9583 31.68C55.9583 32.256 55.9583 32.8533 55.9583 33.472C55.9583 34.0907 55.9583 34.7093 55.9583 35.328C55.9583 35.9253 55.9583 36.48 55.9583 36.992C55.9583 37.2693 55.9583 37.5787 55.9583 37.92C55.9583 38.24 55.9263 38.56 55.8623 38.88C55.8196 39.2 55.7449 39.5093 55.6383 39.808C55.5529 40.1067 55.4143 40.352 55.2223 40.544C54.9023 40.8213 54.5289 40.96 54.1023 40.96C53.5903 40.9387 53.1743 40.7787 52.8543 40.48C52.5556 40.2027 52.3316 39.8613 52.1823 39.456C52.0329 39.0507 51.9369 38.6347 51.8943 38.208C51.8516 37.76 51.8303 37.3653 51.8303 37.024V18.016C51.8303 17.9947 51.8303 17.8987 51.8303 17.728C51.8303 17.536 51.8409 17.3227 51.8623 17.088C51.9049 16.832 51.9689 16.576 52.0543 16.32C52.1609 16.0427 52.2996 15.8187 52.4703 15.648C52.6409 15.4987 52.8649 15.392 53.1423 15.328C53.4196 15.2427 53.6756 15.2 53.9103 15.2C54.4009 15.2 54.8063 15.36 55.1263 15.68C55.4036 15.9787 55.5636 16.2987 55.6063 16.64C55.6703 16.96 55.7236 17.3013 55.7663 17.664C55.7876 17.8987 55.8089 18.2507 55.8303 18.72C55.8729 19.1893 55.9049 19.712 55.9263 20.288C55.9476 20.8427 55.9583 21.4293 55.9583 22.048C55.9796 22.6667 55.9903 23.2427 55.9903 23.776C56.0116 24.3093 56.0223 24.7787 56.0223 25.184C56.0223 25.568 56.0223 25.824 56.0223 25.952L57.8143 25.984ZM34.9023 20.32C34.4756 20.064 34.1983 19.6907 34.0703 19.2C33.9636 18.752 34.0063 18.368 34.1983 18.048C34.3263 17.8347 34.4436 17.6427 34.5503 17.472C34.6569 17.3013 34.7956 17.1627 34.9663 17.056C35.1369 16.9493 35.3716 16.8747 35.6703 16.832C35.9689 16.768 36.3743 16.736 36.8863 16.736H44.6943C47.1689 16.8427 48.6623 17.6 49.1743 19.008C49.3663 19.5627 49.4729 20.128 49.4943 20.704C49.5369 21.2587 49.5476 21.8133 49.5263 22.368V22.88C49.5263 23.008 49.5263 23.2 49.5263 23.456C49.5263 23.6907 49.5263 23.9467 49.5263 24.224C49.5263 24.5013 49.5263 24.7573 49.5263 24.992C49.5476 25.2267 49.5583 25.408 49.5583 25.536C49.5583 26.048 49.5583 26.5707 49.5583 27.104C49.5796 27.616 49.5689 28.128 49.5263 28.64C49.5263 28.832 49.4943 29.0987 49.4303 29.44C49.3663 29.7813 49.2703 30.1333 49.1423 30.496C49.0356 30.8373 48.8863 31.1573 48.6943 31.456C48.5023 31.7547 48.2676 31.968 47.9903 32.096C47.6916 32.224 47.3929 32.288 47.0943 32.288C46.6036 32.288 46.1769 32.096 45.8143 31.712C45.4516 31.328 45.2169 30.816 45.1103 30.176C45.0676 29.9413 45.0356 29.1947 45.0143 27.936C44.9929 26.656 44.9823 25.056 44.9823 23.136V21.952C44.9609 21.7387 44.9076 21.5253 44.8223 21.312C44.7369 21.0987 44.5876 20.9707 44.3743 20.928C44.1823 20.8853 44.0009 20.8533 43.8303 20.832C43.6809 20.8107 43.6169 20.8 43.6383 20.8C43.5743 20.8 43.4783 20.8 43.3503 20.8C43.2223 20.8 42.9876 20.8 42.6463 20.8C42.3263 20.7787 41.8569 20.768 41.2383 20.768C40.6196 20.7467 39.7876 20.736 38.7423 20.736C38.5716 20.736 38.4009 20.7467 38.2303 20.768C38.0596 20.768 37.8889 20.768 37.7183 20.768C37.5263 20.768 37.3236 20.768 37.1102 20.768C36.8969 20.768 36.6409 20.7467 36.3423 20.704C36.1076 20.6613 35.8623 20.6293 35.6063 20.608C35.3716 20.5653 35.1369 20.4693 34.9023 20.32ZM49.5583 35.008C49.7929 35.1573 49.9743 35.36 50.1023 35.616C50.2303 35.8507 50.3049 36.1067 50.3263 36.384C50.3689 36.6613 50.3583 36.9387 50.2943 37.216C50.2516 37.4933 50.1769 37.728 50.0703 37.92C49.8783 38.2613 49.6009 38.4747 49.2383 38.56C48.8756 38.624 48.5236 38.656 48.1823 38.656H35.5423C35.5423 38.656 35.4783 38.656 35.3503 38.656C35.2223 38.6347 35.0729 38.6133 34.9023 38.592C34.7316 38.5493 34.5503 38.5067 34.3583 38.464C34.1663 38.4213 33.9956 38.368 33.8463 38.304C33.3983 38.0693 33.1209 37.632 33.0143 36.992C32.9716 36.6507 32.9929 36.3307 33.0783 36.032C33.1849 35.7333 33.3449 35.488 33.5583 35.296C33.9423 34.976 34.3369 34.7733 34.7423 34.688C35.1689 34.6027 35.5636 34.56 35.9263 34.56C36.0756 34.56 36.3956 34.5707 36.8863 34.592C37.3769 34.592 37.9956 34.6027 38.7423 34.624L38.8383 25.824C38.9236 25.568 39.0516 25.3547 39.2223 25.184C39.3929 24.992 39.5956 24.8427 39.8303 24.736C40.0649 24.6507 40.3103 24.608 40.5663 24.608C41.0356 24.608 41.4516 24.736 41.8142 24.992C42.1769 25.2267 42.4116 25.536 42.5183 25.92C42.5396 25.9627 42.5503 26.1973 42.5503 26.624C42.5716 27.0507 42.5823 27.5733 42.5823 28.192C42.6036 28.7893 42.6143 29.44 42.6143 30.144C42.6356 30.848 42.6463 31.52 42.6463 32.16C42.6463 32.7787 42.6463 33.312 42.6463 33.76C42.6463 34.208 42.6463 34.4853 42.6463 34.592V34.624C42.7103 34.6453 42.9236 34.656 43.2863 34.656C43.6489 34.656 44.0756 34.656 44.5663 34.656C45.0783 34.6347 45.6223 34.624 46.1983 34.624C46.7743 34.624 47.3289 34.624 47.8623 34.624C48.5663 34.624 49.1316 34.752 49.5583 35.008ZM81.9833 28.48C82.3246 28.4587 82.6766 28.4693 83.0393 28.512C83.4233 28.5333 83.7753 28.608 84.0953 28.736C84.4153 28.864 84.6713 29.056 84.8633 29.312C85.0766 29.568 85.1833 29.92 85.1833 30.368C85.1833 30.9013 85.0019 31.3067 84.6393 31.584C84.2766 31.84 83.8393 32.032 83.3273 32.16C82.8366 32.2667 82.3139 32.3307 81.7593 32.352C81.2259 32.352 80.7886 32.352 80.4473 32.352C80.3406 32.352 80.2446 32.3627 80.1593 32.384C80.0739 32.384 79.9779 32.384 79.8713 32.384C79.8713 32.7467 79.8713 33.2053 79.8713 33.76C79.8926 34.3147 79.9033 34.8693 79.9033 35.424C79.9033 35.9787 79.8926 36.5013 79.8713 36.992C79.8713 37.4827 79.8606 37.856 79.8393 38.112C79.7753 38.5173 79.6686 38.912 79.5193 39.296C79.3699 39.6587 79.1139 39.9573 78.7513 40.192C78.4313 40.4053 78.0579 40.512 77.6313 40.512C77.2046 40.512 76.8206 40.416 76.4792 40.224C76.2019 40.0533 75.9886 39.808 75.8393 39.488C75.7113 39.168 75.6153 38.8587 75.5513 38.56C75.5086 38.3253 75.4979 38.0693 75.5193 37.792C75.5406 37.5147 75.5406 37.2587 75.5193 37.024V32.384L71.2953 32.352C71.2953 32.672 71.3059 33.0987 71.3273 33.632C71.3486 34.1653 71.3593 34.72 71.3593 35.296C71.3593 35.8507 71.3486 36.384 71.3273 36.896C71.3273 37.408 71.3059 37.8027 71.2633 38.08C71.1993 38.4853 71.0926 38.88 70.9433 39.264C70.7939 39.6267 70.5379 39.9253 70.1753 40.16C69.8553 40.3733 69.4819 40.48 69.0553 40.48C68.6286 40.48 68.2446 40.384 67.9033 40.192C67.6259 40.0213 67.4126 39.776 67.2633 39.456C67.1353 39.136 67.0393 38.8267 66.9753 38.528C66.9326 38.2933 66.9219 38.0373 66.9433 37.76C66.9646 37.4827 66.9646 37.2267 66.9433 36.992V32.352L64.3513 32.384C63.8606 32.384 63.3913 32.32 62.9433 32.192C62.4953 32.064 62.1433 31.7867 61.8873 31.36C61.6526 30.9973 61.5353 30.6133 61.5353 30.208C61.5566 29.8027 61.7166 29.44 62.0153 29.12C62.1646 28.9493 62.3673 28.8213 62.6233 28.736C62.8793 28.6507 63.1246 28.5973 63.3593 28.576C63.6153 28.5333 63.8286 28.512 63.9993 28.512C64.1913 28.512 64.2979 28.512 64.3193 28.512L81.9833 28.48Z" fill="black"/>
<path d="M62.5 12.3158C61.52 12.3158 60.6917 11.9851 60.015 11.3237C59.3383 10.6623 59 9.85263 59 8.89474C59 7.93684 59.3383 7.12719 60.015 6.46579C60.6917 5.80439 61.52 5.47368 62.5 5.47368C63.48 5.47368 64.3083 5.80439 64.985 6.46579C65.6617 7.12719 66 7.93684 66 8.89474C66 9.85263 65.6617 10.6623 64.985 11.3237C64.3083 11.9851 63.48 12.3158 62.5 12.3158ZM68.8 6.84211C67.82 6.84211 66.9917 6.5114 66.315 5.85C65.6383 5.1886 65.3 4.37895 65.3 3.42105C65.3 2.46316 65.6383 1.65351 66.315 0.992105C66.9917 0.330702 67.82 0 68.8 0C69.78 0 70.6083 0.330702 71.285 0.992105C71.9617 1.65351 72.3 2.46316 72.3 3.42105C72.3 4.37895 71.9617 5.1886 71.285 5.85C70.6083 6.5114 69.78 6.84211 68.8 6.84211ZM77.2 6.84211C76.22 6.84211 75.3917 6.5114 74.715 5.85C74.0383 5.1886 73.7 4.37895 73.7 3.42105C73.7 2.46316 74.0383 1.65351 74.715 0.992105C75.3917 0.330702 76.22 0 77.2 0C78.18 0 79.0083 0.330702 79.685 0.992105C80.3617 1.65351 80.7 2.46316 80.7 3.42105C80.7 4.37895 80.3617 5.1886 79.685 5.85C79.0083 6.5114 78.18 6.84211 77.2 6.84211ZM83.5 12.3158C82.52 12.3158 81.6917 11.9851 81.015 11.3237C80.3383 10.6623 80 9.85263 80 8.89474C80 7.93684 80.3383 7.12719 81.015 6.46579C81.6917 5.80439 82.52 5.47368 83.5 5.47368C84.48 5.47368 85.3083 5.80439 85.985 6.46579C86.6617 7.12719 87 7.93684 87 8.89474C87 9.85263 86.6617 10.6623 85.985 11.3237C85.3083 11.9851 84.48 12.3158 83.5 12.3158ZM65.51 26C64.46 26 63.5792 25.6066 62.8675 24.8197C62.1558 24.0329 61.8 23.1035 61.8 22.0316C61.8 20.8456 62.2142 19.8079 63.0425 18.9184C63.8708 18.0289 64.6933 17.1509 65.51 16.2842C66.1867 15.5772 66.77 14.8075 67.26 13.975C67.75 13.1425 68.3333 12.3614 69.01 11.6316C69.5233 11.0386 70.1183 10.5482 70.795 10.1605C71.4717 9.77281 72.2067 9.57895 73 9.57895C73.7933 9.57895 74.5283 9.7614 75.205 10.1263C75.8817 10.4912 76.4767 10.9702 76.99 11.5632C77.6433 12.293 78.2208 13.0798 78.7225 13.9237C79.2242 14.7675 79.8133 15.5544 80.49 16.2842C81.3067 17.1509 82.1292 18.0289 82.9575 18.9184C83.7858 19.8079 84.2 20.8456 84.2 22.0316C84.2 23.1035 83.8442 24.0329 83.1325 24.8197C82.4208 25.6066 81.54 26 80.49 26C79.23 26 77.9817 25.8974 76.745 25.6921C75.5083 25.4868 74.26 25.3842 73 25.3842C71.74 25.3842 70.4917 25.4868 69.255 25.6921C68.0183 25.8974 66.77 26 65.51 26Z" fill="#C6A0F6"/>
</svg>