<svg width="12" height="12" viewBox="0 0 12 12" fill="none" xmlns="http://www.w3.org/2000/svg">
<path d="M2.25 5.5C1.9 5.5 1.60417 5.37917 1.3625 5.1375C1.12083 4.89583 1 4.6 1 4.25C1 3.9 1.12083 3.60417 1.3625 3.3625C1.60417 3.12083 1.9 3 2.25 3C2.6 3 2.89583 3.12083 3.1375 3.3625C3.37917 3.60417 3.5 3.9 3.5 4.25C3.5 4.6 3.37917 4.89583 3.1375 5.1375C2.89583 5.37917 2.6 5.5 2.25 5.5ZM4.5 3.5C4.15 3.5 3.85417 3.37917 3.6125 3.1375C3.37083 2.89583 3.25 2.6 3.25 2.25C3.25 1.9 3.37083 1.60417 3.6125 1.3625C3.85417 1.12083 4.15 1 4.5 1C4.85 1 5.14583 1.12083 5.3875 1.3625C5.62917 1.60417 5.75 1.9 5.75 2.25C5.75 2.6 5.62917 2.89583 5.3875 3.1375C5.14583 3.37917 4.85 3.5 4.5 3.5ZM7.5 3.5C7.15 3.5 6.85417 3.37917 6.6125 3.1375C6.37083 2.89583 6.25 2.6 6.25 2.25C6.25 1.9 6.37083 1.60417 6.6125 1.3625C6.85417 1.12083 7.15 1 7.5 1C7.85 1 8.14583 1.12083 8.3875 1.3625C8.62917 1.60417 8.75 1.9 8.75 2.25C8.75 2.6 8.62917 2.89583 8.3875 3.1375C8.14583 3.37917 7.85 3.5 7.5 3.5ZM9.75 5.5C9.4 5.5 9.10417 5.37917 8.8625 5.1375C8.62083 4.89583 8.5 4.6 8.5 4.25C8.5 3.9 8.62083 3.60417 8.8625 3.3625C9.10417 3.12083 9.4 3 9.75 3C10.1 3 10.3958 3.12083 10.6375 3.3625C10.8792 3.60417 11 3.9 11 4.25C11 4.6 10.8792 4.89583 10.6375 5.1375C10.3958 5.37917 10.1 5.5 9.75 5.5ZM3.325 10.5C2.95 10.5 2.63542 10.3563 2.38125 10.0688C2.12708 9.78125 2 9.44167 2 9.05C2 8.61667 2.14792 8.2375 2.44375 7.9125C2.73958 7.5875 3.03333 7.26667 3.325 6.95C3.56667 6.69167 3.775 6.41042 3.95 6.10625C4.125 5.80208 4.33333 5.51667 4.575 5.25C4.75833 5.03333 4.97083 4.85417 5.2125 4.7125C5.45417 4.57083 5.71667 4.5 6 4.5C6.28333 4.5 6.54583 4.56667 6.7875 4.7C7.02917 4.83333 7.24167 5.00833 7.425 5.225C7.65833 5.49167 7.86458 5.77917 8.04375 6.0875C8.22292 6.39583 8.43333 6.68333 8.675 6.95C8.96667 7.26667 9.26042 7.5875 9.55625 7.9125C9.85208 8.2375 10 8.61667 10 9.05C10 9.44167 9.87292 9.78125 9.61875 10.0688C9.36458 10.3563 9.05 10.5 8.675 10.5C8.225 10.5 7.77917 10.4625 7.3375 10.3875C6.89583 10.3125 6.45 10.275 6 10.275C5.55 10.275 5.10417 10.3125 4.6625 10.3875C4.22083 10.4625 3.775 10.5 3.325 10.5Z" fill="#C6A0F6"/>
</svg>
